<svg width="20" height="20" viewBox="0 0 20 20" fill="none" xmlns="http://www.w3.org/2000/svg">
<path d="M9.50968 0.0996191L0.758828 3.84999C0.211899 4.08438 -0.0928179 4.67038 0.0282876 5.24856C0.149393 5.82674 0.657255 6.24866 1.25106 6.24866V6.56119C1.25106 7.08077 1.66907 7.49878 2.18865 7.49878H17.8152C18.3348 7.49878 18.7528 7.08077 18.7528 6.56119V6.24866C19.3466 6.24866 19.8583 5.83065 19.9755 5.24856C20.0927 4.66647 19.788 4.08048 19.245 3.84999L10.4942 0.0996191C10.1816 -0.0332064 9.82221 -0.0332064 9.50968 0.0996191ZM5.00143 8.7489H2.50119V16.4176C2.47775 16.4293 2.45431 16.445 2.43087 16.4606L0.555683 17.7107C0.098607 18.0154 -0.108444 18.5858 0.0517274 19.1132C0.211899 19.6406 0.700228 20 1.25106 20H18.7528C19.3036 20 19.788 19.6406 19.9482 19.1132C20.1084 18.5858 19.9052 18.0154 19.4442 17.7107L17.5691 16.4606C17.5456 16.445 17.5222 16.4332 17.4987 16.4176V8.7489H15.0024V16.2496H13.4398V8.7489H10.9395V16.2496H9.06433V8.7489H6.56408V16.2496H5.00143V8.7489ZM10.0019 2.49829C10.3335 2.49829 10.6514 2.63 10.8859 2.86444C11.1203 3.09889 11.252 3.41686 11.252 3.74841C11.252 4.07997 11.1203 4.39794 10.8859 4.63238C10.6514 4.86683 10.3335 4.99853 10.0019 4.99853C9.67037 4.99853 9.35239 4.86683 9.11795 4.63238C8.8835 4.39794 8.7518 4.07997 8.7518 3.74841C8.7518 3.41686 8.8835 3.09889 9.11795 2.86444C9.35239 2.63 9.67037 2.49829 10.0019 2.49829Z" fill="white"/>
</svg>
