<svg width="20" height="20" viewBox="0 0 20 20" fill="none" xmlns="http://www.w3.org/2000/svg">
<path fill-rule="evenodd" clip-rule="evenodd" d="M5.00889 1.62889L3.72889 4.44443H1.66667C1.22464 4.44443 0.800716 4.62003 0.488155 4.93259C0.175595 5.24515 0 5.66907 0 6.1111V8.2022L0.558889 8.48109C3.49026 9.94676 6.72263 10.7098 10 10.7098C13.2774 10.7098 16.5097 9.94676 19.4411 8.48109L20 8.2022V6.1111C20 5.66907 19.8244 5.24515 19.5118 4.93259C19.1993 4.62003 18.7754 4.44443 18.3333 4.44443H16.2711L14.9911 1.62889C14.7705 1.14322 14.4147 0.731357 13.9662 0.442504C13.5178 0.153652 12.9956 3.13112e-05 12.4622 0H7.53778C7.00435 3.13112e-05 6.48221 0.153652 6.03376 0.442504C5.58531 0.731357 5.22951 1.14322 5.00889 1.62889ZM7.53778 2.22222C7.43115 2.22225 7.32679 2.25296 7.23715 2.31068C7.1475 2.36841 7.07636 2.45072 7.03222 2.54777L6.17 4.44443H13.83L12.9678 2.54777C12.9236 2.45072 12.8525 2.36841 12.7629 2.31068C12.6732 2.25296 12.5688 2.22225 12.4622 2.22222H7.53778Z" fill="#F5F3F3" fill-opacity="0.98"/>
<path d="M20 10.6816C17.2134 12.0041 14.1921 12.7606 11.1111 12.9072V14.445C11.1111 14.7397 10.994 15.0223 10.7857 15.2306C10.5773 15.439 10.2947 15.5561 10 15.5561C9.70532 15.5561 9.4227 15.439 9.21433 15.2306C9.00595 15.0223 8.88889 14.7397 8.88889 14.445V12.9072C5.84444 12.7616 2.82222 12.0205 0 10.6816V18.3338C0 18.7759 0.175595 19.1998 0.488155 19.5124C0.800716 19.8249 1.22464 20.0005 1.66667 20.0005H18.3333C18.7754 20.0005 19.1993 19.8249 19.5118 19.5124C19.8244 19.1998 20 18.7759 20 18.3338V10.6816Z" fill="#F5F3F3" fill-opacity="0.98"/>
</svg>
