<svg width="19" height="16" viewBox="0 0 19 16" fill="none" xmlns="http://www.w3.org/2000/svg">
<path d="M9.37675 8.79898L2.98618 15.1895C2.54448 15.6312 1.83024 15.6312 1.39324 15.1895L0.331276 14.1276C-0.110425 13.6859 -0.110425 12.9716 0.331276 12.5346L4.86106 8.00486L0.331276 3.47507C-0.110425 3.03337 -0.110425 2.31913 0.331276 1.88213L1.38854 0.810768C1.83024 0.369067 2.54448 0.369067 2.98148 0.810768L9.37205 7.20134C9.81845 7.64304 9.81845 8.35728 9.37675 8.79898ZM18.3987 7.20134L12.0082 0.810768C11.5665 0.369067 10.8522 0.369067 10.4152 0.810768L9.35325 1.87273C8.91155 2.31443 8.91155 3.02867 9.35325 3.46567L13.883 7.99546L9.35325 12.5252C8.91155 12.9669 8.91155 13.6812 9.35325 14.1182L10.4152 15.1801C10.8569 15.6218 11.5712 15.6218 12.0082 15.1801L18.3987 8.78958C18.8404 8.35728 18.8404 7.64304 18.3987 7.20134Z" fill="white"/>
</svg>
