<svg width="19" height="16" viewBox="0 0 19 16" fill="none" xmlns="http://www.w3.org/2000/svg">
<path d="M9.48808 7.15027L15.9708 0.35239C16.4188 -0.117463 17.1434 -0.117463 17.5867 0.35239L18.6639 1.48204C19.112 1.95189 19.112 2.71165 18.6639 3.17651L14.0689 7.995L18.6639 12.8135C19.112 13.2833 19.112 14.0431 18.6639 14.508L17.5914 15.6476C17.1434 16.1175 16.4188 16.1175 15.9755 15.6476L9.49285 8.84973C9.04001 8.37988 9.04001 7.62012 9.48808 7.15027ZM0.33605 8.84973L6.81874 15.6476C7.26681 16.1175 7.99134 16.1175 8.43465 15.6476L9.51192 14.518C9.95998 14.0481 9.95998 13.2883 9.51192 12.8235L4.91683 8.005L9.51192 3.18651C9.95998 2.71665 9.95998 1.95689 9.51192 1.49203L8.43465 0.362388C7.98658 -0.107466 7.26204 -0.107466 6.81874 0.362388L0.33605 7.16026C-0.112018 7.62012 -0.112018 8.37988 0.33605 8.84973Z" fill="white"/>
</svg>
