<svg width="11" height="12" viewBox="0 0 11 12" fill="none" xmlns="http://www.w3.org/2000/svg">
<path d="M9.24375 0H2.86875C2.34062 0 1.9125 0.503672 1.9125 1.125V2.25H0.95625C0.428121 2.25 0 2.75367 0 3.375V10.875C0 11.4963 0.428121 12 0.95625 12H7.33125C7.85938 12 8.2875 11.4963 8.2875 10.875V9.75H9.24375C9.77188 9.75 10.2 9.24633 10.2 8.625V1.125C10.2 0.503672 9.77188 0 9.24375 0ZM7.21172 10.875H1.07578C1.04408 10.875 1.01368 10.8602 0.99126 10.8338C0.968843 10.8074 0.95625 10.7717 0.95625 10.7344V3.51563C0.95625 3.47833 0.968843 3.44256 0.99126 3.41619C1.01368 3.38982 1.04408 3.375 1.07578 3.375H1.9125V8.625C1.9125 9.24633 2.34062 9.75 2.86875 9.75H7.33125V10.7344C7.33125 10.7717 7.31866 10.8074 7.29624 10.8338C7.27382 10.8602 7.24342 10.875 7.21172 10.875ZM9.12422 8.625H2.98828C2.95658 8.625 2.92618 8.61018 2.90376 8.58381C2.88134 8.55744 2.86875 8.52167 2.86875 8.48438V1.26562C2.86875 1.22833 2.88134 1.19256 2.90376 1.16619C2.92618 1.13982 2.95658 1.125 2.98828 1.125H9.12422C9.15592 1.125 9.18632 1.13982 9.20874 1.16619C9.23115 1.19256 9.24375 1.22833 9.24375 1.26562V8.48438C9.24375 8.52167 9.23115 8.55744 9.20874 8.58381C9.18632 8.61018 9.15592 8.625 9.12422 8.625Z" fill="#A4A4A4"/>
</svg>
