<svg width="17" height="20" viewBox="0 0 17 20" fill="none" xmlns="http://www.w3.org/2000/svg">
<path id="Vector" d="M13.7906 6.89328H11.9735V1.17899C11.9735 0.550418 11.4592 0.0361328 10.8306 0.0361328H6.25921C5.63064 0.0361328 5.11635 0.550418 5.11635 1.17899V6.89328H3.29921C2.28206 6.89328 1.76778 8.12756 2.48778 8.84756L7.73349 14.0933C8.17921 14.539 8.89921 14.539 9.34492 14.0933L14.5906 8.84756C15.3106 8.12756 14.8078 6.89328 13.7906 6.89328ZM0.544922 18.3218C0.544922 18.9504 1.05921 19.4647 1.68778 19.4647H15.4021C16.0306 19.4647 16.5449 18.9504 16.5449 18.3218C16.5449 17.6933 16.0306 17.179 15.4021 17.179H1.68778C1.05921 17.179 0.544922 17.6933 0.544922 18.3218Z" fill="#696969"/>
</svg>
