<svg width="17" height="17" viewBox="0 0 17 17" fill="none" xmlns="http://www.w3.org/2000/svg">
<path id="Vector" d="M16.021 4.93849L14.5803 6.37918C14.4335 6.52606 14.1959 6.52606 14.0491 6.37918L10.5801 2.91027C10.4333 2.76339 10.4333 2.52588 10.5801 2.37899L12.0208 0.938302C12.6052 0.353899 13.5553 0.353899 14.1428 0.938302L16.021 2.81651C16.6086 3.40092 16.6086 4.35096 16.021 4.93849ZM9.34259 3.61655L1.13596 11.8232L0.47343 15.6202C0.382801 16.1328 0.829697 16.5765 1.34222 16.489L5.13927 15.8234L13.3459 7.61674C13.4928 7.46986 13.4928 7.23235 13.3459 7.08546L9.87699 3.61655C9.72698 3.46967 9.48947 3.46967 9.34259 3.61655ZM4.33923 11.12C4.16735 10.9481 4.16735 10.6731 4.33923 10.5012L9.15196 5.68852C9.32384 5.51664 9.59885 5.51664 9.77074 5.68852C9.94262 5.86041 9.94262 6.13542 9.77074 6.3073L4.95801 11.12C4.78613 11.2919 4.51112 11.2919 4.33923 11.12ZM3.21106 13.7483H4.71113V14.8827L2.69541 15.2358L1.72349 14.2639L2.07663 12.2482H3.21106V13.7483Z" fill="#838383"/>
</svg>
