<svg width="23" height="17" viewBox="0 0 23 17" fill="none" xmlns="http://www.w3.org/2000/svg">
<rect width="23" height="17" fill="#F5F5F5"/>
<g id="Application">
<path d="M-9057 -1573C-9057 -1574.1 -9056.1 -1575 -9055 -1575H5924C5925.1 -1575 5926 -1574.1 5926 -1573V1038C5926 1039.1 5925.1 1040 5924 1040H-9055C-9056.1 1040 -9057 1039.1 -9057 1038V-1573Z" fill="white"/>
<path d="M-9055 -1574H5924V-1576H-9055V-1574ZM5925 -1573V1038H5927V-1573H5925ZM5924 1039H-9055V1041H5924V1039ZM-9056 1038V-1573H-9058V1038H-9056ZM-9055 1039C-9055.55 1039 -9056 1038.55 -9056 1038H-9058C-9058 1039.66 -9056.66 1041 -9055 1041V1039ZM5925 1038C5925 1038.55 5924.55 1039 5924 1039V1041C5925.66 1041 5927 1039.66 5927 1038H5925ZM5924 -1574C5924.55 -1574 5925 -1573.55 5925 -1573H5927C5927 -1574.66 5925.66 -1576 5924 -1576V-1574ZM-9055 -1576C-9056.66 -1576 -9058 -1574.66 -9058 -1573H-9056C-9056 -1573.55 -9055.55 -1574 -9055 -1574V-1576Z" fill="black" fill-opacity="0.1"/>
<g id="Frame 23">
<rect width="788" height="1024" transform="translate(-185 -86)" fill="white"/>
<g id="Frame 23_2">
<rect width="786" height="179" transform="translate(-184 -86)" fill="#F0F0F0"/>
<g id="Frame 958">
<g id="Frame 957">
<g id="Frame 955">
<path id="Vector" d="M22.3781 5.69844C22.5457 5.56523 22.7949 5.68984 22.7949 5.90039V14.6875C22.7949 15.8262 21.8711 16.75 20.7324 16.75H2.85742C1.71875 16.75 0.794922 15.8262 0.794922 14.6875V5.90469C0.794922 5.68984 1.03984 5.56953 1.21172 5.70273C2.17422 6.45039 3.45039 7.4 7.8332 10.584C8.73984 11.2457 10.2695 12.6379 11.7949 12.6293C13.3289 12.6422 14.8887 11.2199 15.7609 10.584C20.1437 7.4 21.4156 6.44609 22.3781 5.69844ZM11.7949 11.25C12.7918 11.2672 14.227 9.99531 14.9488 9.47109C20.6508 5.3332 21.0848 4.97226 22.3996 3.94102C22.6488 3.74766 22.7949 3.44687 22.7949 3.12891V2.3125C22.7949 1.17383 21.8711 0.25 20.7324 0.25H2.85742C1.71875 0.25 0.794922 1.17383 0.794922 2.3125V3.12891C0.794922 3.44687 0.941016 3.74336 1.19023 3.94102C2.50508 4.96797 2.93906 5.3332 8.64102 9.47109C9.36289 9.99531 10.798 11.2672 11.7949 11.25Z" fill="#696969"/>
</g>
</g>
</g>
</g>
</g>
</g>
</svg>
