<svg width="20" height="20" viewBox="0 0 20 20" fill="none" xmlns="http://www.w3.org/2000/svg">
<path d="M3.75 2.85714C3.75 1.28125 4.87109 0 6.25 0H17.5C18.8789 0 20 1.28125 20 2.85714V17.1429C20 18.7188 18.8789 20 17.5 20H3.125C1.39844 20 0 18.4018 0 16.4286V4.28571C0 3.49554 0.558594 2.85714 1.25 2.85714C1.94141 2.85714 2.5 3.49554 2.5 4.28571V16.4286C2.5 16.8214 2.78125 17.1429 3.125 17.1429C3.46875 17.1429 3.75 16.8214 3.75 16.4286V2.85714ZM6.25 3.92857V7.5C6.25 8.09375 6.66797 8.57143 7.1875 8.57143H11.5625C12.082 8.57143 12.5 8.09375 12.5 7.5V3.92857C12.5 3.33482 12.082 2.85714 11.5625 2.85714H7.1875C6.66797 2.85714 6.25 3.33482 6.25 3.92857ZM14.375 3.57143C14.375 3.96429 14.6562 4.28571 15 4.28571H16.875C17.2188 4.28571 17.5 3.96429 17.5 3.57143C17.5 3.17857 17.2188 2.85714 16.875 2.85714H15C14.6562 2.85714 14.375 3.17857 14.375 3.57143ZM14.375 7.85714C14.375 8.25 14.6562 8.57143 15 8.57143H16.875C17.2188 8.57143 17.5 8.25 17.5 7.85714C17.5 7.46429 17.2188 7.14286 16.875 7.14286H15C14.6562 7.14286 14.375 7.46429 14.375 7.85714ZM6.25 12.1429C6.25 12.5357 6.53125 12.8571 6.875 12.8571H16.875C17.2188 12.8571 17.5 12.5357 17.5 12.1429C17.5 11.75 17.2188 11.4286 16.875 11.4286H6.875C6.53125 11.4286 6.25 11.75 6.25 12.1429ZM6.25 16.4286C6.25 16.8214 6.53125 17.1429 6.875 17.1429H16.875C17.2188 17.1429 17.5 16.8214 17.5 16.4286C17.5 16.0357 17.2188 15.7143 16.875 15.7143H6.875C6.53125 15.7143 6.25 16.0357 6.25 16.4286Z" fill="white"/>
</svg>
