<svg width="20" height="20" viewBox="0 0 20 20" fill="none" xmlns="http://www.w3.org/2000/svg">
<path d="M15 4.32708L19.5586 9.04193C19.8398 9.34382 20 9.75891 20 10.1866C20 10.6143 19.8398 11.0293 19.5586 11.3312L15.3876 15.4738C15.1376 15.7421 14.2041 16.4025 13.8525 16.4025C13.1221 16.4025 12.5 16.2579 12.5 15.4738V12.3774H7.5C6.80859 12.3774 6.25 12.2704 6.25 11.5283V9.69395C6.25 8.95181 6.80859 8.35223 7.5 8.35223H12.5V4.89937C12.5 4.1153 13.0938 3.47799 13.8242 3.47799C14.1758 3.47799 14.75 4.06293 15 4.32708ZM6.25 2.80713H3.75C3.05859 2.80713 2.5 4.15723 2.5 4.89937V10.1866V15.5535C2.5 16.2956 3.05859 17.566 3.75 17.566H6.25C6.94141 17.566 8.5 17.8449 8.5 18.587C8.5 19.3291 6.94141 20 6.25 20H4C1.92969 20 0 17.7757 0 15.5535V4.81971C0 2.59748 1.92969 0 4 0L6.25 0.0786163C6.94141 0.0786163 8.5 0.67086 8.5 1.413C8.5 2.15514 6.94141 2.80713 6.25 2.80713Z" fill="white"/>
</svg>
