<svg width="19" height="19" viewBox="0 0 19 19" fill="none" xmlns="http://www.w3.org/2000/svg">
<path id="Vector" d="M17.0313 12.7748L14.4862 12.4842C13.8749 12.414 13.2737 12.6245 12.8428 13.0553L10.9991 14.8991C8.16343 13.4561 5.83875 11.1415 4.39584 8.29573L6.24957 6.44199C6.68044 6.01112 6.89086 5.40991 6.82072 4.79868L6.53014 2.27358C6.4099 1.26154 5.55818 0.5 4.53613 0.5H2.80264C1.67036 0.5 0.728462 1.4419 0.798603 2.57419C1.32967 11.1315 8.17345 17.9652 16.7206 18.4963C17.8529 18.5665 18.7948 17.6246 18.7948 16.4923V14.7588C18.8048 13.7467 18.0433 12.895 17.0313 12.7748Z" fill="#696969"/>
</svg>
