<svg width="23" height="22" viewBox="0 0 23 22" fill="none" xmlns="http://www.w3.org/2000/svg">
<g filter="url(#filter0_d_681_5116)">
<path d="M5.03159 0.432266C4.77423 0.521889 4.61519 0.689572 4.54001 0.955551C4.5082 1.05963 4.49953 1.15793 4.51109 1.25912C4.52266 1.34007 4.79737 2.46469 5.11834 3.75701C5.74293 6.25201 5.73425 6.22309 5.91354 6.26357C5.95402 6.27224 7.10778 6.40234 8.47552 6.55268C9.84326 6.70301 10.997 6.83311 11.0375 6.84178C11.078 6.85046 11.1503 6.89961 11.1965 6.94586C11.2659 7.01814 11.2804 7.05862 11.2804 7.17426C11.2804 7.2899 11.2659 7.33038 11.1965 7.40265C11.1503 7.44891 11.078 7.49806 11.0375 7.50673C10.997 7.51541 9.84326 7.6455 8.47552 7.79584C7.10778 7.94618 5.95402 8.07628 5.91354 8.08495C5.73425 8.12542 5.74293 8.09651 5.11834 10.5915C4.79737 11.8838 4.52266 13.0085 4.51109 13.0894C4.45037 13.5896 4.90436 14.0406 5.37858 13.9452C5.46244 13.9278 5.92799 13.7197 6.46584 13.4566C6.98344 13.205 9.70157 11.878 12.5065 10.5135C16.8902 8.37695 17.6275 8.00689 17.7577 7.89125C18.1827 7.50673 18.1827 6.84178 17.7577 6.45727C17.6275 6.34163 16.8902 5.97157 12.5065 3.83506C9.70157 2.47048 6.98344 1.14636 6.46873 0.894838C5.35834 0.351316 5.31208 0.336861 5.03159 0.432266Z" fill="#F9F9F9"/>
</g>
<defs>
<filter id="filter0_d_681_5116" x="0.505615" y="0.386719" width="21.5708" height="21.5713" filterUnits="userSpaceOnUse" color-interpolation-filters="sRGB">
<feFlood flood-opacity="0" result="BackgroundImageFix"/>
<feColorMatrix in="SourceAlpha" type="matrix" values="0 0 0 0 0 0 0 0 0 0 0 0 0 0 0 0 0 0 127 0" result="hardAlpha"/>
<feOffset dy="4"/>
<feGaussianBlur stdDeviation="2"/>
<feComposite in2="hardAlpha" operator="out"/>
<feColorMatrix type="matrix" values="0 0 0 0 0 0 0 0 0 0 0 0 0 0 0 0 0 0 0.25 0"/>
<feBlend mode="normal" in2="BackgroundImageFix" result="effect1_dropShadow_681_5116"/>
<feBlend mode="normal" in="SourceGraphic" in2="effect1_dropShadow_681_5116" result="shape"/>
</filter>
</defs>
</svg>
