<svg width="20" height="20" viewBox="0 0 20 20" fill="none" xmlns="http://www.w3.org/2000/svg">
<path d="M10.0006 0C8.42433 0 7.14648 1.49113 7.14648 3.33053C7.14648 5.16991 8.42433 6.66104 10.0006 6.66104C11.5769 6.66104 12.8547 5.16991 12.8547 3.33053C12.8547 1.49113 11.5769 0 10.0006 0Z" fill="#F5F3F3" fill-opacity="0.98"/>
<path d="M16.4298 1.66406C15.2465 1.66406 14.2871 2.78352 14.2871 4.16444C14.2871 5.54537 15.2465 6.66483 16.4298 6.66483C17.6132 6.66483 18.5726 5.54537 18.5726 4.16444C18.5726 2.78352 17.6132 1.66406 16.4298 1.66406Z" fill="#F5F3F3" fill-opacity="0.98"/>
<path d="M3.57047 1.66406C2.38707 1.66406 1.42773 2.78352 1.42773 4.16444C1.42773 5.54537 2.38707 6.66483 3.57047 6.66483C4.75387 6.66483 5.7132 5.54537 5.7132 4.16444C5.7132 2.78352 4.75387 1.66406 3.57047 1.66406Z" fill="#F5F3F3" fill-opacity="0.98"/>
<path d="M5.71487 9.98721C5.71984 9.07155 6.35748 8.33105 7.14333 8.33105H12.8573C13.6462 8.33105 14.2858 9.07737 14.2858 9.99799V14.9993C14.2858 15.1718 14.2784 15.3425 14.2636 15.5105C14.2326 15.8674 14.1694 16.2131 14.0775 16.5438C13.5198 18.5498 11.9052 20 10.0003 20C8.07728 20 6.45009 18.522 5.9075 16.4863C5.7823 16.0166 5.71484 15.5172 5.71484 14.9993V9.99798C5.71484 9.99439 5.71486 9.99079 5.71487 9.98721Z" fill="#F5F3F3" fill-opacity="0.98"/>
<path d="M4.28547 9.99798C4.28547 9.39075 4.42459 8.82143 4.66768 8.33105H1.42849C0.639564 8.33105 0 9.07737 0 9.99798V14.1658C0 16.4673 1.5989 18.3331 3.57123 18.3331C4.04423 18.3331 4.49576 18.2257 4.90891 18.0309C4.51032 17.1214 4.28547 16.0909 4.28547 14.9993V9.99798Z" fill="#F5F3F3" fill-opacity="0.98"/>
<path d="M15.7152 9.99799V14.9993C15.7152 16.0909 15.4903 17.1214 15.0918 18.0309C15.5049 18.2257 15.9565 18.3331 16.4294 18.3331C18.4018 18.3331 20.0007 16.4673 20.0007 14.1658V9.99798C20.0007 9.07737 19.3611 8.33105 18.5722 8.33105H15.3329C15.5761 8.82143 15.7152 9.39075 15.7152 9.99799Z" fill="#F5F3F3" fill-opacity="0.98"/>
</svg>
