<svg width="13" height="14" viewBox="0 0 13 14" fill="none" xmlns="http://www.w3.org/2000/svg">
<path d="M0.500977 5.25H12.0947C12.2752 5.25 12.4229 5.39766 12.4229 5.57812V12.6875C12.4229 13.4121 11.835 14 11.1104 14H1.48535C0.760742 14 0.172852 13.4121 0.172852 12.6875V5.57812C0.172852 5.39766 0.320508 5.25 0.500977 5.25ZM12.4229 4.04688V3.0625C12.4229 2.33789 11.835 1.75 11.1104 1.75H9.79785V0.328125C9.79785 0.147656 9.6502 0 9.46973 0H8.37598C8.19551 0 8.04785 0.147656 8.04785 0.328125V1.75H4.54785V0.328125C4.54785 0.147656 4.4002 0 4.21973 0H3.12598C2.94551 0 2.79785 0.147656 2.79785 0.328125V1.75H1.48535C0.760742 1.75 0.172852 2.33789 0.172852 3.0625V4.04688C0.172852 4.22734 0.320508 4.375 0.500977 4.375H12.0947C12.2752 4.375 12.4229 4.22734 12.4229 4.04688Z" fill="white"/>
</svg>
