<svg width="16" height="12" viewBox="0 0 16 12" fill="none" xmlns="http://www.w3.org/2000/svg">
<path d="M2.94832 9.23077H1.10216C0.979756 9.23077 0.862362 9.2794 0.775806 9.36595C0.689251 9.45251 0.640625 9.5699 0.640625 9.69231L0.640625 11.5385C0.640625 11.6609 0.689251 11.7783 0.775806 11.8648C0.862362 11.9514 0.979756 12 1.10216 12H2.94832C3.07072 12 3.18812 11.9514 3.27467 11.8648C3.36123 11.7783 3.40986 11.6609 3.40986 11.5385V9.69231C3.40986 9.5699 3.36123 9.45251 3.27467 9.36595C3.18812 9.2794 3.07072 9.23077 2.94832 9.23077ZM2.94832 0H1.10216C0.979756 0 0.862362 0.0486262 0.775806 0.135181C0.689251 0.221737 0.640625 0.339131 0.640625 0.461538L0.640625 2.30769C0.640625 2.4301 0.689251 2.54749 0.775806 2.63405C0.862362 2.7206 0.979756 2.76923 1.10216 2.76923H2.94832C3.07072 2.76923 3.18812 2.7206 3.27467 2.63405C3.36123 2.54749 3.40986 2.4301 3.40986 2.30769V0.461538C3.40986 0.339131 3.36123 0.221737 3.27467 0.135181C3.18812 0.0486262 3.07072 0 2.94832 0ZM2.94832 4.61538H1.10216C0.979756 4.61538 0.862362 4.66401 0.775806 4.75057C0.689251 4.83712 0.640625 4.95452 0.640625 5.07692L0.640625 6.92308C0.640625 7.04548 0.689251 7.16288 0.775806 7.24943C0.862362 7.33599 0.979756 7.38462 1.10216 7.38462H2.94832C3.07072 7.38462 3.18812 7.33599 3.27467 7.24943C3.36123 7.16288 3.40986 7.04548 3.40986 6.92308V5.07692C3.40986 4.95452 3.36123 4.83712 3.27467 4.75057C3.18812 4.66401 3.07072 4.61538 2.94832 4.61538ZM14.9483 9.69231H5.71755C5.59514 9.69231 5.47775 9.74093 5.39119 9.82749C5.30464 9.91404 5.25601 10.0314 5.25601 10.1538V11.0769C5.25601 11.1993 5.30464 11.3167 5.39119 11.4033C5.47775 11.4898 5.59514 11.5385 5.71755 11.5385H14.9483C15.0707 11.5385 15.1881 11.4898 15.2747 11.4033C15.3612 11.3167 15.4099 11.1993 15.4099 11.0769V10.1538C15.4099 10.0314 15.3612 9.91404 15.2747 9.82749C15.1881 9.74093 15.0707 9.69231 14.9483 9.69231ZM14.9483 0.461538H5.71755C5.59514 0.461538 5.47775 0.510165 5.39119 0.59672C5.30464 0.683275 5.25601 0.800669 5.25601 0.923077V1.84615C5.25601 1.96856 5.30464 2.08596 5.39119 2.17251C5.47775 2.25907 5.59514 2.30769 5.71755 2.30769H14.9483C15.0707 2.30769 15.1881 2.25907 15.2747 2.17251C15.3612 2.08596 15.4099 1.96856 15.4099 1.84615V0.923077C15.4099 0.800669 15.3612 0.683275 15.2747 0.59672C15.1881 0.510165 15.0707 0.461538 14.9483 0.461538ZM14.9483 5.07692H5.71755C5.59514 5.07692 5.47775 5.12555 5.39119 5.2121C5.30464 5.29866 5.25601 5.41605 5.25601 5.53846V6.46154C5.25601 6.58395 5.30464 6.70134 5.39119 6.7879C5.47775 6.87445 5.59514 6.92308 5.71755 6.92308H14.9483C15.0707 6.92308 15.1881 6.87445 15.2747 6.7879C15.3612 6.70134 15.4099 6.58395 15.4099 6.46154V5.53846C15.4099 5.41605 15.3612 5.29866 15.2747 5.2121C15.1881 5.12555 15.0707 5.07692 14.9483 5.07692Z" fill="white"/>
</svg>
