<svg width="14" height="17" viewBox="0 0 14 17" fill="none" xmlns="http://www.w3.org/2000/svg">
<path d="M0.635854 6.46214H13.3032C13.5004 6.46214 13.6617 6.62873 13.6617 6.83233V14.8532C13.6617 15.6707 13.0194 16.3339 12.2277 16.3339H1.71139C0.919675 16.3339 0.277344 15.6707 0.277344 14.8532V6.83233C0.277344 6.62873 0.438674 6.46214 0.635854 6.46214ZM13.6617 5.10477V3.99419C13.6617 3.17668 13.0194 2.51342 12.2277 2.51342H10.7937V0.909255C10.7937 0.705649 10.6323 0.539062 10.4351 0.539062H9.24011C9.04293 0.539062 8.8816 0.705649 8.8816 0.909255V2.51342H5.05749V0.909255C5.05749 0.705649 4.89616 0.539062 4.69898 0.539062H3.50394C3.30676 0.539062 3.14543 0.705649 3.14543 0.909255V2.51342H1.71139C0.919675 2.51342 0.277344 3.17668 0.277344 3.99419V5.10477C0.277344 5.30837 0.438674 5.47496 0.635854 5.47496H13.3032C13.5004 5.47496 13.6617 5.30837 13.6617 5.10477Z" fill="#A4A4A4"/>
</svg>
