<svg width="16" height="12" viewBox="0 0 16 12" fill="none" xmlns="http://www.w3.org/2000/svg">
<path d="M3.18074 9.23077H1.33459C1.21218 9.23077 1.09478 9.2794 1.00823 9.36595C0.921673 9.45251 0.873047 9.5699 0.873047 9.69231L0.873047 11.5385C0.873047 11.6609 0.921673 11.7783 1.00823 11.8648C1.09478 11.9514 1.21218 12 1.33459 12H3.18074C3.30315 12 3.42054 11.9514 3.5071 11.8648C3.59365 11.7783 3.64228 11.6609 3.64228 11.5385V9.69231C3.64228 9.5699 3.59365 9.45251 3.5071 9.36595C3.42054 9.2794 3.30315 9.23077 3.18074 9.23077ZM3.18074 0H1.33459C1.21218 0 1.09478 0.0486262 1.00823 0.135181C0.921673 0.221737 0.873047 0.339131 0.873047 0.461538L0.873047 2.30769C0.873047 2.4301 0.921673 2.54749 1.00823 2.63405C1.09478 2.7206 1.21218 2.76923 1.33459 2.76923H3.18074C3.30315 2.76923 3.42054 2.7206 3.5071 2.63405C3.59365 2.54749 3.64228 2.4301 3.64228 2.30769V0.461538C3.64228 0.339131 3.59365 0.221737 3.5071 0.135181C3.42054 0.0486262 3.30315 0 3.18074 0ZM3.18074 4.61538H1.33459C1.21218 4.61538 1.09478 4.66401 1.00823 4.75057C0.921673 4.83712 0.873047 4.95452 0.873047 5.07692L0.873047 6.92308C0.873047 7.04548 0.921673 7.16288 1.00823 7.24943C1.09478 7.33599 1.21218 7.38462 1.33459 7.38462H3.18074C3.30315 7.38462 3.42054 7.33599 3.5071 7.24943C3.59365 7.16288 3.64228 7.04548 3.64228 6.92308V5.07692C3.64228 4.95452 3.59365 4.83712 3.5071 4.75057C3.42054 4.66401 3.30315 4.61538 3.18074 4.61538ZM15.1807 9.69231H5.94997C5.82756 9.69231 5.71017 9.74093 5.62361 9.82749C5.53706 9.91404 5.48843 10.0314 5.48843 10.1538V11.0769C5.48843 11.1993 5.53706 11.3167 5.62361 11.4033C5.71017 11.4898 5.82756 11.5385 5.94997 11.5385H15.1807C15.3031 11.5385 15.4205 11.4898 15.5071 11.4033C15.5937 11.3167 15.6423 11.1993 15.6423 11.0769V10.1538C15.6423 10.0314 15.5937 9.91404 15.5071 9.82749C15.4205 9.74093 15.3031 9.69231 15.1807 9.69231ZM15.1807 0.461538H5.94997C5.82756 0.461538 5.71017 0.510165 5.62361 0.59672C5.53706 0.683275 5.48843 0.800669 5.48843 0.923077V1.84615C5.48843 1.96856 5.53706 2.08596 5.62361 2.17251C5.71017 2.25907 5.82756 2.30769 5.94997 2.30769H15.1807C15.3031 2.30769 15.4205 2.25907 15.5071 2.17251C15.5937 2.08596 15.6423 1.96856 15.6423 1.84615V0.923077C15.6423 0.800669 15.5937 0.683275 15.5071 0.59672C15.4205 0.510165 15.3031 0.461538 15.1807 0.461538ZM15.1807 5.07692H5.94997C5.82756 5.07692 5.71017 5.12555 5.62361 5.2121C5.53706 5.29866 5.48843 5.41605 5.48843 5.53846V6.46154C5.48843 6.58395 5.53706 6.70134 5.62361 6.7879C5.71017 6.87445 5.82756 6.92308 5.94997 6.92308H15.1807C15.3031 6.92308 15.4205 6.87445 15.5071 6.7879C15.5937 6.70134 15.6423 6.58395 15.6423 6.46154V5.53846C15.6423 5.41605 15.5937 5.29866 15.5071 5.2121C15.4205 5.12555 15.3031 5.07692 15.1807 5.07692Z" fill="#A4A4A4"/>
</svg>
