<svg width="15" height="15" viewBox="0 0 15 15" fill="none" xmlns="http://www.w3.org/2000/svg">
<path d="M9.95585 1.83547C10.2884 1.50782 10.7351 1.31702 11.2052 1.30177C11.6753 1.28652 12.1338 1.44796 12.4875 1.75335L12.5764 1.83547L13.0131 2.26556C13.3456 2.5931 13.5392 3.0329 13.5546 3.49582C13.5701 3.95873 13.4063 4.41013 13.0965 4.75851L13.0131 4.84611L6.0883 11.6674C5.99039 11.7638 5.87178 11.8374 5.74119 11.8827L5.64114 11.9113L2.89024 12.5367C2.79387 12.5586 2.69357 12.5574 2.59774 12.5333C2.50192 12.5091 2.41339 12.4627 2.33957 12.3978C2.26575 12.333 2.2088 12.2516 2.17351 12.1606C2.13821 12.0696 2.12561 11.9716 2.13674 11.8748L2.1491 11.8061L2.78339 9.09593C2.81473 8.963 2.87594 8.83869 2.96251 8.73215L3.03106 8.65611L9.95585 1.83547ZM9.51919 3.98593L3.96676 9.45485L3.57395 11.1326L5.27736 10.7451L10.8298 5.2762L9.51919 3.98593ZM11.7031 2.69565C11.5968 2.59091 11.4553 2.52799 11.3052 2.5187C11.1551 2.5094 11.0067 2.55437 10.8878 2.64516L10.8298 2.69565L10.3925 3.12575L11.7031 4.41602L12.1398 3.98593C12.2461 3.88118 12.31 3.74181 12.3194 3.59397C12.3289 3.44613 12.2832 3.29997 12.191 3.18293L12.1398 3.12575L11.7031 2.69565Z" fill="#A4A4A4"/>
</svg>
