<svg width="17" height="17" viewBox="0 0 17 17" fill="none" xmlns="http://www.w3.org/2000/svg">
<path fill-rule="evenodd" clip-rule="evenodd" d="M4.11883 0.829584C3.33373 0.0526124 2.06082 0.0526125 1.27572 0.829584C0.490613 1.60656 0.490613 2.86627 1.27572 3.64325L5.8412 8.16143L1.277 12.6783C0.491898 13.4553 0.491898 14.715 1.277 15.492C2.06211 16.269 3.33501 16.269 4.12012 15.492L8.68431 10.9751L13.2503 15.4938C14.0354 16.2708 15.3083 16.2707 16.0934 15.4938C16.8785 14.7168 16.8785 13.4571 16.0934 12.6801L11.5274 8.16143L16.0908 3.64529C16.876 2.86831 16.876 1.60859 16.0908 0.831623C15.3057 0.0546518 14.0328 0.0546512 13.2477 0.831623L8.68431 5.34777L4.11883 0.829584Z" fill="#D1D1D1"/>
</svg>
