<svg width="13" height="16" viewBox="0 0 13 16" fill="none" xmlns="http://www.w3.org/2000/svg">
<path d="M3.57143 5.9894C3.57143 5.12782 4.27238 4.4269 5.13393 4.4269H8.92857V2.41797C8.92857 2.04813 8.62877 1.74833 8.25893 1.74833H6.00977C5.7005 1.21512 5.1238 0.855469 4.46429 0.855469C3.80477 0.855469 3.22807 1.21512 2.91881 1.74833H0.669643C0.299805 1.74833 0 2.04813 0 2.41797V11.793C0 12.1628 0.299805 12.4626 0.669643 12.4626H3.57143V5.9894ZM4.46429 1.97154C4.83412 1.97154 5.13393 2.27135 5.13393 2.64118C5.13393 3.01102 4.83412 3.31083 4.46429 3.31083C4.09445 3.31083 3.79464 3.01102 3.79464 2.64118C3.79464 2.27135 4.09445 1.97154 4.46429 1.97154ZM9.59821 8.89118H12.5V14.4715C12.5 14.8414 12.2002 15.1412 11.8304 15.1412H5.13393C4.76409 15.1412 4.46429 14.8414 4.46429 14.4715V5.9894C4.46429 5.61956 4.76409 5.31976 5.13393 5.31976H8.92857V8.22154C8.92857 8.58984 9.22991 8.89118 9.59821 8.89118ZM12.5 7.82927V7.99833H9.82143V5.31976H9.99049C10.1681 5.31976 10.3384 5.3903 10.464 5.51588L12.3039 7.35575C12.4294 7.48134 12.5 7.65166 12.5 7.82927Z" fill="#666666"/>
</svg>
