<svg width="13" height="14" viewBox="0 0 13 14" fill="none" xmlns="http://www.w3.org/2000/svg">
<path d="M7.67857 11.2874H8.32143C8.40668 11.2874 8.48843 11.2535 8.54871 11.1932C8.60899 11.133 8.64286 11.0512 8.64286 10.966V5.18025C8.64286 5.095 8.60899 5.01324 8.54871 4.95296C8.48843 4.89268 8.40668 4.85882 8.32143 4.85882H7.67857C7.59332 4.85882 7.51157 4.89268 7.45129 4.95296C7.39101 5.01324 7.35714 5.095 7.35714 5.18025V10.966C7.35714 11.0512 7.39101 11.133 7.45129 11.1932C7.51157 11.2535 7.59332 11.2874 7.67857 11.2874ZM12.0714 2.28739H9.86402L8.9533 0.768639C8.83901 0.578196 8.67733 0.420609 8.48403 0.311234C8.29072 0.201859 8.07237 0.144426 7.85027 0.144531H5.14973C4.92772 0.144518 4.70948 0.201995 4.51628 0.311366C4.32307 0.420737 4.16148 0.578274 4.04723 0.768639L3.13598 2.28739H0.928571C0.814907 2.28739 0.705898 2.33254 0.625526 2.41291C0.545153 2.49329 0.5 2.6023 0.5 2.71596L0.5 3.14453C0.5 3.2582 0.545153 3.3672 0.625526 3.44758C0.705898 3.52795 0.814907 3.5731 0.928571 3.5731H1.35714V12.5731C1.35714 12.9141 1.4926 13.2411 1.73372 13.4822C1.97484 13.7234 2.30186 13.8588 2.64286 13.8588H10.3571C10.6981 13.8588 11.0252 13.7234 11.2663 13.4822C11.5074 13.2411 11.6429 12.9141 11.6429 12.5731V3.5731H12.0714C12.1851 3.5731 12.2941 3.52795 12.3745 3.44758C12.4548 3.3672 12.5 3.2582 12.5 3.14453V2.71596C12.5 2.6023 12.4548 2.49329 12.3745 2.41291C12.2941 2.33254 12.1851 2.28739 12.0714 2.28739ZM5.10286 1.50819C5.11718 1.48435 5.13745 1.46463 5.16167 1.45097C5.1859 1.43731 5.21326 1.43017 5.24107 1.43025H7.75893C7.7867 1.43021 7.814 1.43738 7.83817 1.45104C7.86235 1.4647 7.88257 1.48439 7.89687 1.50819L8.36455 2.28739H4.63545L5.10286 1.50819ZM10.3571 12.5731H2.64286V3.5731H10.3571V12.5731ZM4.67857 11.2874H5.32143C5.40668 11.2874 5.48843 11.2535 5.54871 11.1932C5.60899 11.133 5.64286 11.0512 5.64286 10.966V5.18025C5.64286 5.095 5.60899 5.01324 5.54871 4.95296C5.48843 4.89268 5.40668 4.85882 5.32143 4.85882H4.67857C4.59332 4.85882 4.51157 4.89268 4.45129 4.95296C4.39101 5.01324 4.35714 5.095 4.35714 5.18025V10.966C4.35714 11.0512 4.39101 11.133 4.45129 11.1932C4.51157 11.2535 4.59332 11.2874 4.67857 11.2874Z" fill="#666666"/>
</svg>
