<svg width="15" height="14" viewBox="0 0 15 14" fill="none" xmlns="http://www.w3.org/2000/svg">
<path d="M10.2854 2.60322L12.4778 4.89779C12.5701 4.99446 12.5701 5.15218 12.4778 5.24884L7.16945 10.8047L4.91389 11.0667C4.6125 11.1023 4.35729 10.8352 4.39132 10.5197L4.64167 8.15904L9.95 2.60322C10.0424 2.50655 10.1931 2.50655 10.2854 2.60322ZM14.2229 2.02067L13.0368 0.779259C12.6674 0.392591 12.067 0.392591 11.6951 0.779259L10.8347 1.67979C10.7424 1.77646 10.7424 1.93418 10.8347 2.03084L13.0271 4.32542C13.1194 4.42209 13.2701 4.42209 13.3625 4.32542L14.2229 3.42489C14.5924 3.03567 14.5924 2.40734 14.2229 2.02067ZM9.83333 9.2936V11.8833H2.05556V3.74287H7.64097C7.71875 3.74287 7.79167 3.7098 7.84757 3.65384L8.81979 2.63629C9.00451 2.44295 8.87326 2.11479 8.61319 2.11479H1.66667C1.02257 2.11479 0.5 2.66173 0.5 3.33585V12.2903C0.5 12.9644 1.02257 13.5113 1.66667 13.5113H10.2222C10.8663 13.5113 11.3889 12.9644 11.3889 12.2903V8.27605C11.3889 8.00386 11.0753 7.86903 10.8906 8.05982L9.9184 9.07737C9.86493 9.13588 9.83333 9.2122 9.83333 9.2936Z" fill="#666666"/>
</svg>
