<svg width="13" height="12" viewBox="0 0 13 12" fill="none" xmlns="http://www.w3.org/2000/svg">
<path d="M10.8915 7.5H10.1217C10.0197 7.5 9.92177 7.53951 9.8496 7.60984C9.77742 7.68016 9.73687 7.77554 9.73687 7.875V10.5H2.03948V3H5.50331C5.60538 3 5.70327 2.96049 5.77545 2.89016C5.84763 2.81984 5.88817 2.72446 5.88817 2.625V1.875C5.88817 1.77554 5.84763 1.68016 5.77545 1.60984C5.70327 1.53951 5.60538 1.5 5.50331 1.5H1.65461C1.34839 1.5 1.05471 1.61853 0.838177 1.8295C0.621646 2.04048 0.5 2.32663 0.5 2.625L0.5 10.875C0.5 11.1734 0.621646 11.4595 0.838177 11.6705C1.05471 11.8815 1.34839 12 1.65461 12H10.1217C10.428 12 10.7216 11.8815 10.9382 11.6705C11.1547 11.4595 11.2763 11.1734 11.2763 10.875V7.875C11.2763 7.77554 11.2358 7.68016 11.1636 7.60984C11.0914 7.53951 10.9936 7.5 10.8915 7.5ZM12.2385 0H9.15957C8.64553 0 8.38862 0.607266 8.75064 0.960938L9.61011 1.79836L3.74734 7.50867C3.69352 7.56093 3.65081 7.62303 3.62168 7.6914C3.59254 7.75977 3.57754 7.83308 3.57754 7.90711C3.57754 7.98114 3.59254 8.05445 3.62168 8.12282C3.65081 8.19119 3.69352 8.25329 3.74734 8.30555L4.29265 8.83594C4.34628 8.88838 4.41001 8.92999 4.48019 8.95838C4.55036 8.98677 4.62559 9.00138 4.70157 9.00138C4.77756 9.00138 4.85279 8.98677 4.92296 8.95838C4.99313 8.92999 5.05686 8.88838 5.1105 8.83594L10.9704 3.12469L11.8296 3.96094C12.1904 4.3125 12.8158 4.06641 12.8158 3.5625V0.5625C12.8158 0.413316 12.755 0.270242 12.6467 0.164752C12.5385 0.0592632 12.3916 0 12.2385 0Z" fill="#A4A4A4"/>
</svg>
