<svg width="11" height="14" viewBox="0 0 11 14" fill="none" xmlns="http://www.w3.org/2000/svg">
<path d="M0.278036 5.46852H10.102C10.2549 5.46852 10.38 5.59772 10.38 5.75562V11.976C10.38 12.61 9.88185 13.1244 9.26786 13.1244H1.11214C0.498147 13.1244 0 12.61 0 11.976V5.75562C0 5.59772 0.125116 5.46852 0.278036 5.46852ZM10.38 4.41584V3.55456C10.38 2.92055 9.88185 2.40617 9.26786 2.40617H8.15571V1.1621C8.15571 1.00419 8.0306 0.875 7.87768 0.875H6.95089C6.79797 0.875 6.67286 1.00419 6.67286 1.1621V2.40617H3.70714V1.1621C3.70714 1.00419 3.58203 0.875 3.42911 0.875H2.50232C2.3494 0.875 2.22429 1.00419 2.22429 1.1621V2.40617H1.11214C0.498147 2.40617 0 2.92055 0 3.55456V4.41584C0 4.57374 0.125116 4.70294 0.278036 4.70294H10.102C10.2549 4.70294 10.38 4.57374 10.38 4.41584Z" fill="#666666"/>
</svg>
