<svg width="20" height="14" viewBox="0 0 20 14" fill="none" xmlns="http://www.w3.org/2000/svg">
<path d="M12.4987 3.66536C12.4987 2.48203 12.082 1.39036 11.3904 0.532031C11.7404 0.415364 12.107 0.332031 12.4987 0.332031C14.3404 0.332031 15.832 1.8237 15.832 3.66536C15.832 5.50703 14.3404 6.9987 12.4987 6.9987C12.1404 6.9987 11.7987 6.9237 11.4737 6.8237C11.4487 6.81536 11.4237 6.80703 11.3904 6.7987C12.1075 5.91185 12.4987 4.80586 12.4987 3.66536ZM13.882 7.94036C15.0237 8.71536 15.832 9.76536 15.832 11.1654V13.6654H19.1654V11.1654C19.1654 9.3487 16.182 8.2737 13.882 7.94036ZM7.4987 1.9987C6.58203 1.9987 5.83203 2.7487 5.83203 3.66536C5.83203 4.58203 6.58203 5.33203 7.4987 5.33203C8.41536 5.33203 9.16536 4.58203 9.16536 3.66536C9.16536 2.7487 8.41536 1.9987 7.4987 1.9987ZM7.4987 9.4987C5.2487 9.4987 2.66536 10.5737 2.4987 11.1737V11.9987H12.4987V11.1654C12.332 10.5737 9.7487 9.4987 7.4987 9.4987ZM7.4987 0.332031C9.34036 0.332031 10.832 1.8237 10.832 3.66536C10.832 5.50703 9.34036 6.9987 7.4987 6.9987C5.65703 6.9987 4.16536 5.50703 4.16536 3.66536C4.16536 1.8237 5.65703 0.332031 7.4987 0.332031ZM7.4987 7.83203C9.7237 7.83203 14.1654 8.9487 14.1654 11.1654V13.6654H0.832031V11.1654C0.832031 8.9487 5.2737 7.83203 7.4987 7.83203Z" fill="#5F6368"/>
</svg>
