<svg width="13" height="14" viewBox="0 0 13 14" fill="none" xmlns="http://www.w3.org/2000/svg">
<path d="M6.11 0.890625C2.73472 0.890625 0 3.62534 0 7.00063C0 10.3759 2.73472 13.1106 6.11 13.1106C9.48528 13.1106 12.22 10.3759 12.22 7.00063C12.22 3.62534 9.48528 0.890625 6.11 0.890625ZM7.51678 9.51607L5.34379 7.93683C5.26741 7.88017 5.22306 7.79148 5.22306 7.69785V3.55143C5.22306 3.38883 5.35611 3.25579 5.51871 3.25579H6.70129C6.8639 3.25579 6.99694 3.38883 6.99694 3.55143V6.94396L8.56139 8.08219C8.69443 8.17828 8.72153 8.36306 8.62545 8.4961L7.93068 9.45202C7.8346 9.58259 7.64982 9.61216 7.51678 9.51607Z" fill="#666666"/>
</svg>
