<svg width="19" height="18" viewBox="0 0 19 18" fill="none" xmlns="http://www.w3.org/2000/svg">
<path d="M15.4575 11.1564H14.3125C14.1607 11.1564 14.015 11.2151 13.9077 11.3198C13.8003 11.4244 13.74 11.5663 13.74 11.7142V15.6189H2.29V4.46255H7.4425C7.59434 4.46255 7.73995 4.40378 7.84732 4.29917C7.95468 4.19456 8.015 4.05267 8.015 3.90473V2.78909C8.015 2.64115 7.95468 2.49927 7.84732 2.39466C7.73995 2.29005 7.59434 2.23128 7.4425 2.23128H1.7175C1.26199 2.23128 0.825138 2.40759 0.503044 2.72142C0.18095 3.03525 0 3.4609 0 3.90473L0 16.1767C0 16.6206 0.18095 17.0462 0.503044 17.3601C0.825138 17.6739 1.26199 17.8502 1.7175 17.8502H14.3125C14.768 17.8502 15.2049 17.6739 15.527 17.3601C15.8491 17.0462 16.03 16.6206 16.03 16.1767V11.7142C16.03 11.5663 15.9697 11.4244 15.8623 11.3198C15.755 11.2151 15.6093 11.1564 15.4575 11.1564ZM17.4612 0H12.8812C12.1166 0 11.7345 0.903318 12.273 1.42941L13.5514 2.67509L4.83047 11.1693C4.75041 11.247 4.68689 11.3394 4.64355 11.4411C4.6002 11.5428 4.57789 11.6518 4.57789 11.762C4.57789 11.8721 4.6002 11.9811 4.64355 12.0828C4.68689 12.1845 4.75041 12.2769 4.83047 12.3546L5.64163 13.1436C5.72141 13.2216 5.81621 13.2835 5.92059 13.3257C6.02498 13.368 6.13689 13.3897 6.24991 13.3897C6.36293 13.3897 6.47485 13.368 6.57923 13.3257C6.68361 13.2835 6.77841 13.2216 6.85819 13.1436L15.5749 4.64803L16.853 5.89196C17.3897 6.41492 18.32 6.04885 18.32 5.29928V0.836728C18.32 0.614814 18.2295 0.401989 18.0685 0.245072C17.9074 0.0881551 17.689 0 17.4612 0Z" fill="#5F6368"/>
</svg>
