<svg width="35" height="34" viewBox="0 0 35 34" fill="none" xmlns="http://www.w3.org/2000/svg">
<g id="web_light_sq_na 1">
<g id="Clip path group">
<mask id="mask0_837_1410" style="mask-type:luminance" maskUnits="userSpaceOnUse" x="9" y="8" width="17" height="18">
<g id="clip0_710_6223">
<path id="Vector" d="M26 8.5H9V25.5H26V8.5Z" fill="white"/>
</g>
</mask>
<g mask="url(#mask0_837_1410)">
<g id="Group">
<path id="Vector_2" d="M25.66 17.1928C25.66 16.59 25.6059 16.0105 25.5055 15.4541H17.5V18.7421H22.0745C21.8775 19.8046 21.2787 20.7048 20.3784 21.3075V23.4403H23.1255C24.7327 21.9605 25.66 19.7814 25.66 17.1928Z" fill="#4285F4"/>
<path id="Vector_3" d="M17.5002 25.5002C19.7952 25.5002 21.7193 24.7391 23.1256 23.4409L20.3786 21.3082C19.6175 21.8182 18.6438 22.1195 17.5002 22.1195C15.2863 22.1195 13.4125 20.6243 12.7441 18.6152H9.9043V20.8175C11.303 23.5955 14.1775 25.5002 17.5002 25.5002Z" fill="#34A853"/>
<path id="Vector_4" d="M12.7438 18.6149C12.5738 18.1049 12.4773 17.5601 12.4773 16.9999C12.4773 16.4396 12.5738 15.8949 12.7438 15.3849V13.1826H9.90406C9.32844 14.3301 9 15.6283 9 16.9999C9 18.3714 9.32844 19.6696 9.90406 20.8171L12.7438 18.6149Z" fill="#FBBC04"/>
<path id="Vector_5" d="M17.5002 11.8807C18.7481 11.8807 19.8686 12.3095 20.7495 13.1518L23.1875 10.7138C21.7155 9.34226 19.7913 8.5 17.5002 8.5C14.1775 8.5 11.303 10.4048 9.9043 13.1827L12.7441 15.385C13.4125 13.3759 15.2863 11.8807 17.5002 11.8807Z" fill="#E94235"/>
</g>
</g>
</g>
</g>
</svg>
