<svg width="11" height="11" viewBox="0 0 11 11" fill="none" xmlns="http://www.w3.org/2000/svg">
<path d="M5.50816 0C2.611 0 0.263672 2.28714 0.263672 5.11C0.263672 7.93286 2.611 10.22 5.50816 10.22C8.40532 10.22 10.7527 7.93286 10.7527 5.11C10.7527 2.28714 8.40532 0 5.50816 0ZM6.71566 7.21375L4.85049 5.89298C4.78493 5.84559 4.74687 5.77142 4.74687 5.69312V2.22532C4.74687 2.08933 4.86106 1.97806 5.00063 1.97806H6.01569C6.15526 1.97806 6.26946 2.08933 6.26946 2.22532V5.06261L7.6123 6.01455C7.7265 6.09491 7.74976 6.24945 7.66728 6.36071L7.07094 7.16018C6.98846 7.26939 6.82986 7.29411 6.71566 7.21375Z" fill="#A4A4A4"/>
</svg>
