<svg width="13" height="15" viewBox="0 0 13 15" fill="none" xmlns="http://www.w3.org/2000/svg">
<path d="M6.125 7.5C8.0582 7.5 9.625 5.9332 9.625 4C9.625 2.0668 8.0582 0.5 6.125 0.5C4.1918 0.5 2.625 2.0668 2.625 4C2.625 5.9332 4.1918 7.5 6.125 7.5ZM8.575 8.375H8.11836C7.51133 8.65391 6.83594 8.8125 6.125 8.8125C5.41406 8.8125 4.74141 8.65391 4.13164 8.375H3.675C1.64609 8.375 0 10.0211 0 12.05V13.1875C0 13.9121 0.587891 14.5 1.3125 14.5H10.9375C11.6621 14.5 12.25 13.9121 12.25 13.1875V12.05C12.25 10.0211 10.6039 8.375 8.575 8.375Z" fill="#3B3B3B"/>
</svg>
